<svg id="e5b7d589-0ee4-4072-93a7-622ae462b31d" data-name="FRY Token" xmlns="http://www.w3.org/2000/svg" xmlns:xlink="http://www.w3.org/1999/xlink" viewBox="0 0 500 500"><defs><linearGradient id="a8e5b94c-e61b-4adc-86f2-2523dc1b570b" x1="169.31" y1="241.45" x2="335.6" y2="241.45" gradientUnits="userSpaceOnUse"><stop offset="0" stop-color="#5bc4f1"/><stop offset="0.01" stop-color="#5bc4f1"/><stop offset="1" stop-color="#596bb0"/></linearGradient></defs><g id="ba123c8a-2e47-4ec6-b0f8-e36714f49c53" data-name="Background"><rect id="aef1a8be-8bdd-465d-b2c1-857806b711b1" data-name="Round" width="500" height="500" rx="250" style="fill:#d3edfd"/></g><g id="a50a7532-6968-4e92-92e8-e9dccb2213dc" data-name="FRY"><path d="M328,162.6a31.32,31.32,0,0,0-1.84-2.79l-75.7-31.05-75.82,31.05S144.44,200.3,157.9,271s38.22,154,92.54,154S329.53,341.63,343,271C354.39,211.06,334.35,172.84,328,162.6Z" style="fill:#d5f2e0;fill-rule:evenodd"/><path d="M169.45,320.67c5.4,18.27,21.9,33.88,42.6,40.07.34-.83,1.26-1.14,2.55-.8a12.58,12.58,0,0,0,4.26.55c1.54-.13,1.95.6,1.94,1.57a15.39,15.39,0,0,1-.71,3.47,48.56,48.56,0,0,0-1.49,9.09c0,.84-.15,2.22-.26,3.06a102,102,0,0,0-.86,13.52,57,57,0,0,1-.37,6q-.54,5.16-.79,10.33a3.94,3.94,0,0,0,1.61.4,9.82,9.82,0,0,0,5.63-2.17c13.6-9.29,21.76-24.21,21.43-39.16-.08-3.44-.57-7,.6-10.25,1.45-4.09,5.22-7.2,8.8-10.15,27.78-22.84,53.76-48.37,68.31-79a133.46,133.46,0,0,0,12.82-61.93.78.78,0,0,1-.24,0c-.64.07-.77-.42-.86-.82-.6-2.6-1.15-5.21-1.76-7.8s-.79-5-1.75-7.39c-.29-.73.27-1.19.87-1.61s1.19-.81,1.8-1.2a136.33,136.33,0,0,0-3.68-15.6c-9.49-31.69-30.63-60.61-59.19-82.19C261.34,81.63,250.24,75,237.77,75c-14.44,0-26.89,8.77-36,18.43-24.3,25.83-33.74,60.54-30.61,93.68,0-.72,0-1.45,0-2.17a5.16,5.16,0,0,1,.19-1.23,1.35,1.35,0,0,1,1.52-1.14,1.31,1.31,0,0,1,1.33,1.3c.19,1.65.41,3.3.57,4.95a59.81,59.81,0,0,0,3.84,15.11q3.88,10.33,8.43,20.48c1.2,2.68,2.6,5.28,3.89,7.93a1.22,1.22,0,0,0,1.45.71,35.4,35.4,0,0,0,10-2.54,128.87,128.87,0,0,0,20.16-10.61,49.29,49.29,0,0,0,14.35-14.54c2-3-.84,13.86-.05,11.87,1,.06,9.53-11.31,8.41-5.53-2,8.13-7.19,7.61-12.93,14.14a62.34,62.34,0,0,1-15.63,12.37,83.37,83.37,0,0,1-9.24,5c-.86.36-.67.87-.45,1.44,1,2.49,2.23,4.86,3.36,7.29,4.19,9,10.44,17.08,16.09,25.43,3.52,5.21,7.42,10.23,10.59,15.61a25,25,0,0,1,2.81,7.44c.48,2.14,1.43,4.21,2,6.34a37.65,37.65,0,0,1,1.46,11.44,25.43,25.43,0,0,1-1.78,9.85,34.4,34.4,0,0,1-9.14,12.52,38.51,38.51,0,0,1-8.69,5.44c-.45.21-.9.44-1.34.66a1,1,0,0,1-1.27-.15c-4.15-3.62-8.64-6.93-13.16-10.2S198.83,330,194,327.13a139.29,139.29,0,0,0-15.17-8.27c-1.63-.71-3.23-1.48-4.86-2.2a3.35,3.35,0,0,0-3.5.47h0A3.36,3.36,0,0,0,169.45,320.67Z" style="stroke:#172b4d;stroke-miterlimit:10;stroke-width:8px;fill:url(#a8e5b94c-e61b-4adc-86f2-2523dc1b570b)"/><path d="M208,142.3a19.06,19.06,0,0,1-1.6,5.81,23.39,23.39,0,0,1-10.52,10.6c-1.68.88-5.53,3-7.59,2.65-2.83-.45-1.57-5.56-1.48-7.66a2.31,2.31,0,0,1,.28-1.24,3.64,3.64,0,0,1,2.14-1.15c6.74-2,11.81-7.65,12.47-13.78a39.07,39.07,0,0,1,.43-4.71,4.67,4.67,0,0,0,.21-1.33,3.71,3.71,0,0,0-.36-1.19L200.15,126c.86-.64,2.14.15,2.83.93A20,20,0,0,1,208,142.3Z" style="fill:#a8d0e1"/><path d="M297.41,146.63c-9.13-1.34-17-8.92-17.42-16.93a15.15,15.15,0,0,1,5.17-11.79c.73-.66,2.14-1.2,2.66-.42.31.46,0,1-.23,1.5-2.14,4.14-.82,8.93.53,13.31a8.65,8.65,0,0,0,1.5,3.17,8.11,8.11,0,0,0,3.16,2,18.71,18.71,0,0,0,8.76,1.19,1.53,1.53,0,0,1,1,.12,1.1,1.1,0,0,1,.36.54l2.24,5.64a1,1,0,0,1,.07.9,1.4,1.4,0,0,1-.91.48A19.07,19.07,0,0,1,297.41,146.63Z" style="fill:#a8d0e1"/><path d="M212,360.93a.88.88,0,0,1,.05-.15A.64.64,0,0,0,212,360.93Z" style="fill:#31b3e6"/><path d="M210.6,383.89c0,1.28,0,2.19,0,2.54.21,2.64.32,10.8,2.26,16.27a59.23,59.23,0,0,1-1.31-7.83C211.1,391.21,210.79,387.56,210.6,383.89Z" style="fill:#31b3e6"/><path d="M172.85,199.18a168.18,168.18,0,0,0,9,31.27c-1.78-6-4.29-11.82-5.37-17.9C175.66,208,174,203.63,172.85,199.18Z" style="fill:#31b3e6"/><path d="M215.6,330.4a78.21,78.21,0,0,0-27.42-13.57c1.52.49,3,1,4.55,1.58A95.89,95.89,0,0,1,215.6,330.4Z" style="fill:#31b3e6"/><path d="M217.49,390.75A100.54,100.54,0,0,1,218.3,378a22,22,0,0,0,.27-2.29,45.23,45.23,0,0,1,1.52-10.19,15.39,15.39,0,0,0,.71-3.47,1.36,1.36,0,0,0-1.36-1.58c-1.77-.14-3.52-.35-5.27-.63-1.06-.17-1.82.15-2.12.89l0,0a.88.88,0,0,0-.05.15.14.14,0,0,0,0,.06,40.84,40.84,0,0,0-1.07,4.19c-.2,1.37-.15,2.73-.22,4.1-.15,2.61-.31,5.22-.29,7.83,0,2.27.1,4.53.22,6.78.19,3.67.5,7.32.94,11a59.23,59.23,0,0,0,1.31,7.83,24.69,24.69,0,0,0,2,5.29,2.75,2.75,0,0,0,1.27,1.54,1.8,1.8,0,0,0,.15-.42c0-.53.06-1.07.09-1.6.16-3.21.39-6.42.71-9.62C217.27,395.52,217.47,393.13,217.49,390.75Z" style="fill:#1a7fa6"/><path d="M248.39,130.31a2.24,2.24,0,0,1-4.16.86,4.86,4.86,0,0,1-.65-4.33,2.16,2.16,0,0,1,4.07-.11A9.72,9.72,0,0,1,248.39,130.31Z" style="fill:#1a4469"/><path d="M237,128.31c.19-1.57.93-2.41,2.12-2.42s1.85.8,2.11,2.33a10.68,10.68,0,0,1,.15,3.14,2,2,0,0,1-1.83,1.77,2,2,0,0,1-2.18-1.43A7.12,7.12,0,0,1,237,128.31Z" style="fill:#1a4469"/><path d="M231.83,374.71a2.67,2.67,0,0,1-2.85,1.91,2.49,2.49,0,0,1-2.35-2.58,2.65,2.65,0,0,1,5.2.67Z" style="fill:#fffdff"/><path d="M242.64,306.2a2.09,2.09,0,0,1-2.4,1.54,2,2,0,0,1-1.78-2,2.05,2.05,0,0,1,2.28-1.55A2,2,0,0,1,242.64,306.2Z" style="fill:#fffdff"/><path d="M285.14,295.8a2,2,0,0,1-2.3,1.63,2,2,0,0,1-1.87-1.94,2.16,2.16,0,0,1,2.46-1.6A1.83,1.83,0,0,1,285.14,295.8Z" style="fill:#fffdff"/><path d="M293.89,295.26a1.46,1.46,0,0,1-2.12,1,2.52,2.52,0,0,1-1.46-2.83,1.51,1.51,0,0,1,2.39-.56A4.1,4.1,0,0,1,293.89,295.26Z" style="fill:#fffdff"/><path d="M189.92,338.9a1.78,1.78,0,0,1-1.63-2,1.93,1.93,0,0,1,2.16-1.39,1.83,1.83,0,0,1,1.71,1.92A2,2,0,0,1,189.92,338.9Z" style="fill:#fffdff"/><path d="M235.12,366.07a2,2,0,0,1-2.13,1.46,1.76,1.76,0,0,1-1.68-1.82,1.91,1.91,0,0,1,2.1-1.46A1.85,1.85,0,0,1,235.12,366.07Z" style="fill:#fffdff"/><path d="M199,339.77a1.83,1.83,0,0,1,2.12-1.4,1.71,1.71,0,0,1,1.56,1.8,1.89,1.89,0,0,1-2.15,1.38A1.61,1.61,0,0,1,199,339.77Z" style="fill:#fffdff"/><path d="M293.25,284.65a1.86,1.86,0,0,1-2,1.47,1.7,1.7,0,0,1-1.56-1.8,1.69,1.69,0,0,1,1.87-1.41A1.74,1.74,0,0,1,293.25,284.65Z" style="fill:#fffdff"/><path d="M194.6,342.36c1.05.12,1.63.75,1.51,1.67a1.71,1.71,0,0,1-2,1.3,1.61,1.61,0,0,1-1.49-1.74A1.76,1.76,0,0,1,194.6,342.36Z" style="fill:#fffdff"/><path d="M298.77,220a1.51,1.51,0,0,1,1.42,1.57c-.08.77-.64,1.12-1.49,1.12a1.57,1.57,0,0,1-1.6-1.44A1.55,1.55,0,0,1,298.77,220Z" style="fill:#fffdff"/><path d="M246,311a1.11,1.11,0,0,1,1.29-1,1.06,1.06,0,0,1,1.1,1.28,1.17,1.17,0,0,1-1.3,1.15A1.22,1.22,0,0,1,246,311Z" style="fill:#fffdff"/><path d="M244,299.75c.82.18,1.29.56,1.17,1.24a1.14,1.14,0,0,1-1.41.93c-.78-.08-1.19-.54-1.1-1.21S243.33,299.74,244,299.75Z" style="fill:#fffdff"/><path d="M304.62,206.46a1.16,1.16,0,0,1-1.36,1c-.78-.06-1.19-.5-1.11-1.18a1.08,1.08,0,0,1,1.28-.94A1.1,1.1,0,0,1,304.62,206.46Z" style="fill:#fffdff"/><path d="M190.93,103.39a17.25,17.25,0,0,1,1.93.26,2.14,2.14,0,0,1,1.44,3.15,4.38,4.38,0,0,1-1.89,1.92,45.17,45.17,0,0,1-8.61,3.53,18.88,18.88,0,0,1-3.65.89,5,5,0,0,1-1.39,0c-2.25-.42-3.13-2.24-2.06-4.29a7.15,7.15,0,0,1,3.12-2.85,21.06,21.06,0,0,1,9.1-2.46C189.54,103.44,190.17,103.42,190.93,103.39Z" style="fill:#1a4469"/><path d="M298.29,103.77a4.16,4.16,0,0,1-2.86.88,51.86,51.86,0,0,1-12.37-1.53,12.12,12.12,0,0,1-2.6-1.06c-1.91-1.07-1.79-3,.23-3.89a11.27,11.27,0,0,1,4.32-.75,43.37,43.37,0,0,1,9.59.66,9.28,9.28,0,0,1,4.13,2C299.68,100.82,299.44,102.81,298.29,103.77Z" style="fill:#1a4469"/><path d="M287.27,121.84c-1.29,5.9,3.35,14.51,8.47,15.49-3.64-10.92-.33-20.15,9.21-28C298.44,108.71,289.28,112.62,287.27,121.84Z" style="fill:#fffdff"/><path d="M307.48,106.47c-13.64-1.75-23,8-24,15.81-1.19,9.83,7,18.77,18.54,19.9,13.45,1.29,22.33-6.83,23.52-15.61C326.87,116.79,318.56,107.89,307.48,106.47Zm-11.74,30.86c-5.12-1-9.76-9.59-8.47-15.49,2-9.22,11.17-13.13,17.68-12.46C295.41,117.18,292.1,126.41,295.74,137.33Z" style="fill:#1a4469"/><path d="M306.06,117.63a6.67,6.67,0,0,1,1.72-3.22,4.38,4.38,0,0,1,4.82-.87,3.21,3.21,0,0,1,1.54,3.78,9.61,9.61,0,0,1-1.41,2.59,3.86,3.86,0,0,1-4.37,1.66A3.27,3.27,0,0,1,306.06,117.63Z" style="fill:#fffdff"/><path d="M317.63,119.91a2.44,2.44,0,0,1,2.3,2.5,2.71,2.71,0,0,1-2.88,2,2.4,2.4,0,0,1-2.38-2.53A2.57,2.57,0,0,1,317.63,119.91Z" style="fill:#fffdff"/><path d="M188.59,120.34c-8.16-2.76-19.64.34-23.74,8.93s1.32,17.27,7.5,20c-3-5.92-2.13-11.61,1.14-17.14S181.82,122.71,188.59,120.34Z" style="fill:#fffdff"/><path d="M183.79,116.35c-12.08-1.13-23,6.48-24.31,17s7.47,19.91,19.88,21.08c12.26,1.16,23.59-6.36,24.75-16.66C205.35,126.69,196.86,117.81,183.79,116.35Zm-11.44,32.89c-6.18-2.7-11.65-11.28-7.5-20s15.58-11.69,23.74-8.93c-6.77,2.37-11.83,6.25-15.1,11.76S169.35,143.32,172.35,149.24Z" style="fill:#1a4469"/><path d="M193.9,128.93a5,5,0,0,1-5.44,4.11,4,4,0,0,1-3.75-4.37,5,5,0,0,1,5.5-3.93A3.9,3.9,0,0,1,193.9,128.93Z" style="fill:#fffdff"/><path d="M199.13,131.88a2,2,0,0,1-2.24,1.59,1.8,1.8,0,0,1-1.7-1.91,2,2,0,0,1,2.24-1.58A1.75,1.75,0,0,1,199.13,131.88Z" style="fill:#fffdff"/><path d="M227.79,143.61a.32.32,0,0,1,.26,0,2,2,0,0,1,.8-.24c1.69-.22,3.39-.45,5.09-.62q13.89-1.37,27.79-2.7c.41,0,.81-.13,1.22-.18a1.9,1.9,0,0,1,1.57.42l0,0a.47.47,0,0,1,.24-.24,1.51,1.51,0,0,0,.2-.35,1.4,1.4,0,0,0-.86-1.58,4.21,4.21,0,0,0-2-.25A199.14,199.14,0,0,0,229,141.81a3.35,3.35,0,0,0-1.6.63c-1,.85-.69,1.29,0,1.5A.56.56,0,0,1,227.79,143.61Z" style="fill:#a8d0e1"/><path d="M259.78,153.16a14.17,14.17,0,0,0-9.86,4.36c-.32.33-.63.66-1,1a.62.62,0,0,1-.75.1A.43.43,0,0,1,248,158a4.38,4.38,0,0,1,.53-.88c.35-.39.27-.63-.23-.81a6.13,6.13,0,0,0-.68-.24,19.21,19.21,0,0,0-9.38.09,2.15,2.15,0,0,0-1.28.71c-.19.27-.18.44.1.67a15.87,15.87,0,0,0,11.41,3.72,13.74,13.74,0,0,0,11.7-8.06Z" style="fill:#ff9359"/><path d="M263.93,139.82m-36.25,3.43a.32.32,0,0,0-.26,0,.46.46,0,0,0-.35.29,2.13,2.13,0,0,0-.11.33,2.16,2.16,0,0,0,0,.57,14.08,14.08,0,0,0,1.11,4.92,22.28,22.28,0,0,0,14,13.31,14.78,14.78,0,0,0,9.08.67,18.57,18.57,0,0,0,10.19-7.15,21.84,21.84,0,0,0,3.61-9.86,19.17,19.17,0,0,0-.19-6.14c0-.23,0-.51-.35-.59m-15.91,21.65a15.87,15.87,0,0,1-11.41-3.72c-.28-.23-.29-.4-.1-.67a2.15,2.15,0,0,1,1.28-.71,19.21,19.21,0,0,1,9.38-.09,6.13,6.13,0,0,1,.68.24c.5.18.58.42.23.81a4.38,4.38,0,0,0-.53.88.43.43,0,0,0,.21.62.62.62,0,0,0,.75-.1c.34-.3.65-.63,1-1a14.17,14.17,0,0,1,9.86-4.36h.38A13.74,13.74,0,0,1,248.46,161.22Z" style="fill:#1a4469"/><path d="M238.41,371.19a1.14,1.14,0,0,1-1.32.94c-.74-.07-1.1-.51-1-1.13s.56-.95,1.29-.89A1,1,0,0,1,238.41,371.19Z" style="fill:#fffdff"/><path d="M343,271c-13.45,70.67-38.23,154-92.55,154s-79.09-83.36-92.54-154c-12.7-66.72,7.71-96.48,10.68-100.72-.74,1.1,2.76-5.52,0,0,15.72,20.5,42,30.69,77.46,32.19,39.36-1.64,67.52-14.08,82.24-39.36C335,174,354.22,212,343,271Z" style="fill:#6cd2c2;fill-rule:evenodd"/><path d="M188.45,374.44c.35.68-10.43-47.4,35.46-82.48l1.51-1.26,7.54,3.14c25.91,11.07,64.88,31.69,87.64,61.74.76-2,1.52-3.9,2.14-5.91-22.38-31.56-63.12-53.19-89.78-64.76,22.64-17.1,41.25-30.8,53.82-41.11,21,3.52,41.5,10.69,56.71,25.27a169.11,169.11,0,0,0,2.77-25.15,168.27,168.27,0,0,1-2.39,18.36c-35.71-34.2-99.59-27.66-134.67-27.66-40.36,0-54-14.38-54.2-13.33C149,258.81,162.35,323.77,188.45,374.44Z" style="fill:#d5f2e0"/><path d="M168.58,170.25c15.72,20.5,42,30.69,77.46,32.19,39.36-1.64,67.52-14.08,82.24-39.36C335,174,354.22,212,343,271c-13.45,70.67-38.23,154-92.55,154s-79.09-83.36-92.54-154c-9.43-49.49,2.55-84.19,10.58-100.53Z" style="fill:none;stroke:#172b4d;stroke-miterlimit:10;stroke-width:8px;fill-rule:evenodd"/></g></svg>