<svg xmlns="http://www.w3.org/2000/svg" xmlns:xlink="http://www.w3.org/1999/xlink" viewBox="0 0 500 500"><defs><linearGradient id="bd84b032-73f5-4bb4-b263-35ff192e134c" x1="227.9" y1="404.47" x2="177.2" y2="116.93" gradientUnits="userSpaceOnUse"><stop offset="0.01" stop-color="#5bc4f1"/><stop offset="1" stop-color="#596bb0"/></linearGradient><linearGradient id="e8768108-6c9c-4869-80a5-7e7cada26c1d" x1="97.37" y1="244.73" x2="151.91" y2="244.73" xlink:href="#bd84b032-73f5-4bb4-b263-35ff192e134c"/><linearGradient id="e4005cfc-d633-40b2-92df-5bfff0a5509e" x1="229.67" y1="242.07" x2="302.78" y2="242.07" xlink:href="#bd84b032-73f5-4bb4-b263-35ff192e134c"/></defs><g id="a1eab90b-9d7a-4b66-ab27-4fada50dfc8d" data-name="GUPPY Token"><g id="bebff793-e6d2-4bc1-8863-8e378c33884b" data-name="Background"><rect id="a54d5a46-c62f-4a6d-9744-2e774e59bf2a" data-name="Round" width="500" height="500" rx="250" style="fill:#d3edfd"/></g><g id="a8f78d8e-9574-48bd-b3c8-e49482fed090" data-name="Guppy"><path d="M418,343c.9-1.32,2.15-3,3.86-5.07a12.9,12.9,0,0,0,3.06-9,12.6,12.6,0,0,0-11.08-11.73l-8-.95a13.41,13.41,0,0,1-3.26-.74c-3-1.17-4.69-3.3-5.47-6.81a21.82,21.82,0,0,1-.28-7.09,15.78,15.78,0,0,1,.34-1.82l3.74-15.35c3-9.16,2.64-26.9-17.45-36.79l-.41-.2a36.69,36.69,0,0,1-18.47-21.52c-2.31-7.13-7.17-17.08-17.14-23.45-9.38-6-17-7.5-21.82-7.72h-.48a10,10,0,0,0-7,17.23l5.82,5.68a10,10,0,0,1,2.49,10.79,14.09,14.09,0,0,1-1.48,3.08c-3.1,5-12.18,20.37-12.62,31.49-.19,4.6,1.14,11.36,2.91,18.12A76.45,76.45,0,0,1,312,329.83l-.13.34a16.12,16.12,0,0,1-2,3.52,17.64,17.64,0,0,1-12.42,6.88C281,342.31,284,342.16,281,342.31c-3.59.17-11.68-.17-16.14.06-8.13.42-10.7-.75-15.51-1.89-15.76-5.24-27.75-21.63-31.81-41.65l.09-.72.07-.34,5-17.13a2.25,2.25,0,0,1,3.44-1.22c8.6,6,36.94,23.68,53.17,8.83,19.3-17.64,25.66-54.41,25.66-54.41s5.47-26.82,4.58-38.47-8.52-7.66-13-3.81c-5.53,4.78-13.51,18.3-36.4,25.59a2.34,2.34,0,0,1-3-1.64,2.21,2.21,0,0,1,1.19-2.41c4.76-2.34,20.61-11.78,31.44-24,13-14.65,10.51-12.31,16.13-20.93,1.9-2.9,5.54-12.14,6.48-15.48,0,0,2.92-9.57-13.44-10.77,0,0-3.92,0-6.45-1.78a4.61,4.61,0,0,1-1.82-4.56c1.29-7.83,3.32-34-26.35-37.64a26.51,26.51,0,0,0-17.59,4,26.92,26.92,0,0,0-8.22,7.65,2,2,0,0,1-3,.37c-6.26-5.81-28-22.28-56.23-2.15-.12.08-2-.57-2.1-.52-3.42,1.23-46.57,20.08-77.51,64.79a137.48,137.48,0,0,0-24.62,82.52q.17,6.45.18,12.89c0,10.49,3,35.43,26.44,68.95a75.18,75.18,0,0,0,7.48,9.08c5.94,6.44,13.6,13.08,27.77,21.45,14.84,8.76,27.15,16,45.26,20.35.84.2,1.67.38,2.49.56l0,0,1.29,4,.1.33,4,15.27.43,1.39a6.18,6.18,0,0,0,2,3.1,6,6,0,0,0,7.3.13,14.49,14.49,0,0,0,5.65-9l1.93-10.47c.14-.75.25-1.51.37-2.26l0,0c4.12.1,8.67.12,14,.14,12.32.06,29.71.05,51.21-4.21,4.19-.83,7.3-1.57,10.06-2.35,4.38-1.23,8.11-2.42,11.41-3.57l4.12-1.49c1.11-.4,0,0,3.58-1.56,3.32-1.45,7.43-1.45,10.24.39l.07,0a89.09,89.09,0,0,1,8.75,7.05c2.23,2.16,17.32,16.15,33.84,16.09h1.73c13.78-.14,23.15-1.52,42.3-9.37,12-4.93,19-10.92,22.67-15.08a12.58,12.58,0,0,0,.87-15.68,11.6,11.6,0,0,0-2.28-2.41A11.28,11.28,0,0,1,416.1,351v-.11A11.26,11.26,0,0,1,418,343Z" style="fill:#172b4d"/><path d="M286.43,142.6s-15.8,15.8-38.47,3c0,0-16.72,51.53-66.41,24.51,0,0-24.29-12.08-19.2-50.53,0,0-27.74,19.84-46.75,42.51,0,0-25.87,30.92-31.14,63.66h0c0,.08-15.55,57.28,20.61,102.36h0s21.3,33,67.78,48.78l1.49.37s-10.13-14.34-10.74-26,2.84-17,2.84-17,3.35-8.5,2.57-15.72c0,0,2.92,3.78-.34,16.32s-2.35,18.62,3.22,26.13c0,0,18.12,22.73,20.86,34.15a31.19,31.19,0,0,0,1,3.12c1.14,3.28,3.17,9.35,3.41,11.68,0,0,6.47-14.48,6.59-22.44,0,0,1.77-13.45,0-25.25s-16-22.92-16.08-22.95h0s-11.74-11.24-9.91-22.1c0,0,.69,11.68,15.35,20.67,0,0,13.39,12.19,15.51,22.72s.86,23.76.86,23.76,52.44,1.26,82-9.27h0s20.1-5,26.1-12.74c0,0,10.4-11.16,9.19-17.69S316,341.25,316,341.25s-62.17,17.86-88.11-5.15l-14.25-13.8L208,329.08a1.51,1.51,0,0,1-2.59-1.47c5-13.74,13.67-41,11.32-61.41,0,0-16.83,1-38.13-21.13,0,0-20.09,1.72-41.39-20.26,0,0-1.37,21.12,12.54,45.68s7.21,34.35,1.2,34c0,0-22.84,2.06-55.64-29.72,0,0-9.45-19.75,7.38-52.21,0,0,16.83-34.52,30.06-41l1.81-8.68a2,2,0,0,1,3.89.67c-.38,2.51-.84,5.09-1.41,7.66-3.78,17.18-3.26,46.72,33,56.34l-6.87-13.61s42.22,45.84,68.34,35.15a2,2,0,0,1,.33-.09c1.5-.2,15.12-3.15,17.55-45.33,0,0-6.93-1.6-7.1,3.27s-.28,33.23-16.6,36.32-36-26.1-36-26.1-20.52-27.74-24.65-43.54c0,0,19.75,35.89,69.9,24.9,44.81-9.82,61.41-35.47,64.43-40.82.41-.73.86-1.42,1.32-2.12,2.26-3.34,8.28-13.17,3.54-16.82C304.25,148.73,289.69,145.75,286.43,142.6Z" style="fill:url(#bd84b032-73f5-4bb4-b263-35ff192e134c)"/><path d="M197.34,410.53h-.21a2.66,2.66,0,0,1-2.37-2c-.49-2-1.53-5.38-2.92-9.4-.46-1.32-.84-2.58-1.18-3.85-2.88-11-20.21-32.81-20.38-33a30.54,30.54,0,0,1-4.05-7.06c2.19,10,9.71,20.76,9.79,20.88l3.2,4.54-7-1.77c-45.87-15.59-67.27-47.19-68.79-49.52-35.56-44.42-21.72-101-21-104C87.77,192.41,113,162,114,160.74c7.55-9,22.35-23.78,50-43l1.11-.77a2.25,2.25,0,0,1,2.65,0,2.3,2.3,0,0,1,.82,2.55c-11.61,35.86,13.61,48.57,13.87,48.69,14.54,7.91,27.45,9.67,38.46,5.28,17.91-7.12,25-28.35,25.09-28.56l.78-2.4,2.19,1.24c21.07,11.91,35.86-2.49,36-2.64l1.44-1.43,1.45,1.4c1.95,1.89,11,4.41,16.8,5.61l.47.09.37.29c4.22,3.24,3.19,9.92-2.88,18.8-.33.48-1.67,2.52-3.06,4.66a104.94,104.94,0,0,1-8.74,11.67c-8.1,9.28-21.71,20.89-55.41,28.27-32.9,7.21-55.27-8.47-66.59-19.83,8.36,15.74,22.37,35,22.55,35.24s19.16,28.09,33.94,25.3c6.39-1.21,14.16-8,14.9-33.63l0-.75a5.23,5.23,0,0,1,2-4.15c2.73-2.09,7.11-1.16,7.6-1l1.69.39-.1,1.73C249,256.45,235.2,260.61,232.21,261a24.7,24.7,0,0,1-9.31,1.72c-18.3,0-39.92-17.17-52.22-28.53l3.27,6.49-4.43-1.18c-40.42-10.73-37.56-44.67-34.46-58.77.2-.92.39-1.86.58-2.82l-1,5-.9.45c-12.44,6.14-28.95,39.76-29.12,40.1-9,17.28-10.23,30.75-9.72,39a24.48,24.48,0,0,0,8.41,16.78c28.08,24.45,47.35,23.19,47.54,23.17h.3a3.92,3.92,0,0,0,3.49-2.08c1.19-1.93,4.25-9.69-6.6-28.85-14.06-24.81-12.86-45.95-12.81-46.84l.31-4.64,3.23,3.34C159,244.3,178.26,243,178.46,243l1-.08.68.7c20.25,21.07,36.37,20.51,36.52,20.5l1.94-.1.23,1.92c2.23,19.43-5.27,44.9-10.39,59.42l5.09-6.1,15.85,15.34c24.72,21.93,85.49,4.83,86.1,4.65s6.31-2,10.19.29a6.62,6.62,0,0,1,3.14,4.67c1.32,7.15-5.28,14.42-6.14,15.33-6.39,8.06-29.46,17-30.44,17.39-29.61,10.56-80.61,9.47-82.77,9.41l-2.21-.05.21-2.2c0-.13,1.2-13.06-.83-23.16-1.48-7.35-9.27-16-12.56-19.33a22,22,0,0,0-3.6-3.06c-.69-.47-1.34-.93-2-1.4l.53.51c1.24,1,15,12.07,16.79,24.24,1.68,11.48.15,24.24,0,25.69-.14,6.37-3.8,16.07-6,21.3A2.64,2.64,0,0,1,197.34,410.53Zm-31.15-99.06,4.46,5.76c.59.77,3.36,5.24,0,18.1-3.07,11.77-2.42,17.24,2.88,24.38.69.87,18,22.67,21.1,34.49.31,1.17.66,2.33,1.08,3.55.57,1.64,1.24,3.63,1.84,5.56,1.74-4.63,4-11.49,4.08-15.89v-.24c0-.13,1.72-13.32.06-24.68-1.57-10.82-15.17-21.52-15.31-21.63l-.11-.09c-.51-.46-12.46-11.34-10.46-23.2l3.09-18.36,1,18.59c0,.36.76,9.24,12.82,17.32a26.69,26.69,0,0,1,4.25,3.61c4.4,4.5,12,13.27,13.65,21.4S212,378,211.71,382.27c10.17.09,53.6-.1,79.07-9.18,6.37-2.46,24-10.18,28.68-16.15l.15-.17c1.7-1.76,5.95-7.32,5.13-11.8a2.46,2.46,0,0,0-1.19-1.86c-1.94-1.15-5.7-.29-6.87.1-2.67.76-63.65,17.93-90.12-5.57l-12.73-12.31-6.43,7.73a3,3,0,0,1-5.09-3c4.44-11.58,14.35-40.34,12.58-61.87-5.17-.4-19.66-3.2-37.1-21-4.18.05-20.51-.9-38.41-17.39a93.74,93.74,0,0,0,12.19,39.7c11.23,19.82,8.9,29.22,6.52,33a8,8,0,0,1-7.08,4c-2.1.13-21.92.67-50.46-24.18a28.64,28.64,0,0,1-9.81-19.64c-.54-8.78.78-23,10.15-41.11.66-1.36,16.55-33.72,30.06-41.47l1.77-8.44a4,4,0,0,1,7.9,1.38c-.42,3-.94,5.82-1.54,8.53-2.72,12.38-5.25,41.45,27,52.52l-3.43-6.78a2.48,2.48,0,0,1,4-2.86c6.91,7.05,42.47,41.76,64.3,32.58l.34-.15h.37c.08,0,12.91-1.77,15.6-41.48a4.27,4.27,0,0,0-2.44.5c-.13.1-.39.3-.42,1l0,.72c-.82,28.34-10.38,36.06-18.26,37.56-17.46,3.29-37.24-25.75-38.07-27s-23.15-31.79-28.26-47.94a2.31,2.31,0,0,1,4.13-2c2.59,3.89,26.59,37.77,70.65,28.11,32.53-7.13,45.51-18.15,53.19-27a99.61,99.61,0,0,0,8.39-11.2c1.42-2.19,2.78-4.26,3.11-4.74,3.19-4.67,6.07-10.72,4.07-12.94-3-.64-12.29-2.76-16.74-5.42-4.31,3.43-18.58,12.73-37.47,3.28-2.45,6.06-10.36,22.34-26.6,28.82-12.22,4.87-26.31,3-41.9-5.43-.2-.09-26.16-13.15-17.37-48.57-25.23,17.89-38.92,31.6-46,40.07-.25.3-25.57,30.87-30.69,62.66l0,.21c-.16.57-14.85,56.8,20.22,100.53l.13.17c.2.32,20.25,30.68,62.73,46.53-3.15-5.38-7.58-14.25-8-22.17-.57-11.05,2.35-16.83,3-18,.42-1.12,3.05-8.47,2.39-14.6Zm1.3-191.15h0Zm-2.83-2.06h0Z" style="fill:#172b4d"/><ellipse cx="262.82" cy="123.79" rx="26.21" ry="26.63" style="fill:#fff"/><path d="M262.82,154.54a30.75,30.75,0,1,1,30.34-30.75A30.58,30.58,0,0,1,262.82,154.54Zm0-53.25a22.51,22.51,0,1,0,22.09,22.5A22.32,22.32,0,0,0,262.82,101.29Z" style="fill:#172b4d"/><circle cx="262.31" cy="123.79" r="13.23" style="fill:#172b4d"/><circle cx="256.43" cy="114.13" r="7.34" style="fill:#fff"/><path d="M129.77,189.66S97,223.81,97.37,262.8a15.88,15.88,0,0,0,4.92,11.31c7.26,7,22.59,19.81,41.22,24.55,0,0,8.4,3.39,8.4-1.46S145.59,275,145,273.45l-.56-1.54s-12-31.07-12-37.37C132.51,234.54,126.79,221.72,129.77,189.66Z" style="fill:url(#e8768108-6c9c-4869-80a5-7e7cada26c1d)"/><path d="M148.7,301.19a17,17,0,0,1-5.62-1.22c-18.8-4.81-34.21-17.64-41.74-24.87A17.36,17.36,0,0,1,96,262.82c-.38-39.1,32.44-73.77,32.77-74.12l2.73-2.83-.37,3.91c-2.89,31.2,2.58,44.08,2.64,44.2l.12.27v.29c0,5,8.57,28.3,11.87,36.87l.57,1.58c2.12,5.86,6.95,19.71,6.95,24.21a3.66,3.66,0,0,1-1.57,3.22A5.41,5.41,0,0,1,148.7,301.19ZM128.05,193.67c-7.77,9.17-29.61,37.75-29.31,69.12a14.65,14.65,0,0,0,4.5,10.33c7.34,7.05,22.38,19.57,40.6,24.21l.18.05c1.84.74,5.06,1.49,6.15.76.11-.07.36-.24.36-.94,0-3.33-3.48-14.14-6.74-23.16l-.6-1.66c-.48-1.24-11.72-30.51-12-37.55C130.36,232.88,126.05,220.71,128.05,193.67Z" style="fill:#172b4d"/><path d="M129.2,202.32q-4,7.92-7.75,15.92c-2.46,5.22-5,10.43-7,15.82a122.51,122.51,0,0,0-7.28,32.46c-.43,4.74-.43,9.5-.72,14.25a2.08,2.08,0,0,0,2.06,2.06,2.1,2.1,0,0,0,2.06-2.06c.25-4,.24-7.93.53-11.89A124.83,124.83,0,0,1,113.24,253a114.93,114.93,0,0,1,4.38-15.78c1.85-5.18,4.21-10.13,6.55-15.11q4.17-8.91,8.59-17.71a2.06,2.06,0,0,0-3.56-2.09Z" style="fill:#172b4d"/><path d="M131,217.58c-2.19,4.34-3.52,9-5,13.68-1.47,4.79-3,9.58-4.41,14.4a55.71,55.71,0,0,0-2.19,14.63c-.11,4.89.11,9.8-.27,14.69-.43,5.35-2.56,10.94-.76,16.24a2.06,2.06,0,1,0,4-1.1c-1.48-4.34.28-9.13.76-13.52a143.17,143.17,0,0,0,.39-14.35,54.46,54.46,0,0,1,1.62-13.94c1.28-4.65,2.81-9.25,4.23-13.87,1.52-5,2.82-10.12,5.17-14.78a2.11,2.11,0,0,0-.74-2.82,2.07,2.07,0,0,0-2.82.74Z" style="fill:#172b4d"/><path d="M135.66,231.62a19.33,19.33,0,0,0-1.33,6.56q-.22,3.49-.43,7-.43,6.84-.8,13.67c-.25,4.67-.47,9.34-.63,14-.08,2.2-.2,4.41-.16,6.62a24.67,24.67,0,0,0,1,6.38c.65,2.34.35,4.61.44,7a30.29,30.29,0,0,0,1.28,7.5c.78,2.53,4.76,1.45,4-1.1a25.08,25.08,0,0,1-1.12-6.08,63.85,63.85,0,0,0-.17-6.49c-.29-1.91-1.06-3.69-1.21-5.63a58.55,58.55,0,0,1,0-6.49c.29-8.95.79-17.9,1.33-26.84.15-2.5.31-5,.47-7.51.13-2.12,0-4.53.89-6.52a2.13,2.13,0,0,0-.74-2.82,2.07,2.07,0,0,0-2.82.74Z" style="fill:#172b4d"/><path d="M257.06,225.78A69.32,69.32,0,0,0,302.75,200s1.71,36.81-19.58,72.36c0,0-9.45,20.95-33.84,6.87,0,0-17.08-6.78-19.66-12.62C229.67,266.63,254.66,262,257.06,225.78Z" style="fill:url(#e4005cfc-d633-40b2-92df-5bfff0a5509e)"/><path d="M265,285.5c-5,0-10.45-1.68-16.25-5-2.19-.88-17.63-7.23-20.32-13.31l-.7-1.59,1.71-.31c1-.19,24-5,26.27-39.59l.08-1.19,1.19-.09c.27,0,26.77-2.21,44.7-25.24l2.29-2.93.17,3.71c0,.37,1.49,37.6-19.74,73.07-.43.93-4.31,8.69-13,11.49A20.69,20.69,0,0,1,265,285.5Zm-33.16-18.06c3.47,4.12,13.88,8.89,18,10.53l.18.09c7.7,4.45,14.61,5.74,20.52,3.83,7.9-2.54,11.34-10,11.38-10.07l.07-.14c16.92-28.25,19.15-57.63,19.39-67.84a70.54,70.54,0,0,1-43,23.19C255.92,257,237.79,265.46,231.82,267.44Z" style="fill:#172b4d"/><path d="M257.12,235.79l-.35-4.11c.3,0,30.11-2.7,43.25-13.88l2.67,3.14C288.54,233,258.4,235.68,257.12,235.79Z" style="fill:#172b4d"/><path d="M263.89,244.83a65.7,65.7,0,0,1-10.25-.73l.65-4.07c17.22,2.74,41.84-3.74,42.09-3.81l1.06,4C296.58,240.44,279.85,244.83,263.89,244.83Z" style="fill:#172b4d"/><path d="M279.88,258a90.16,90.16,0,0,1-30.75-5.42l1.55-3.82c.19.08,19.22,7.65,40.76,4.23l.64,4.07A78.68,78.68,0,0,1,279.88,258Z" style="fill:#172b4d"/><path d="M284.31,272.21c-1.35-.1-33-2.68-42.75-11.31l2.72-3.09c7.28,6.42,31.59,9.61,40.35,10.29Z" style="fill:#172b4d"/><path d="M186.13,210.15s28.86,51.07,38.24,30.92c0,0,4.58-12.71,3.1-24C227.47,217,209.6,221.26,186.13,210.15Z" style="fill:#b82a35"/><path d="M218.37,246.29c-12.27,0-31.85-34.41-32.69-35.89l-.8-1.41,1.47.7c23,10.89,40.82,6.87,41,6.83l.55-.13.08.56c1.48,11.33-3.08,24.16-3.12,24.29-1.52,3.26-3.61,4.94-6.24,5Zm-31-35c3.9,6.63,20.91,34.4,31.18,33.95,2.24-.08,4-1.53,5.33-4.4,0-.08,4.35-12.28,3.11-23.22C223.86,218.21,207.77,220.47,187.4,211.3Z" style="fill:#172b4d"/><path d="M197.72,215.15c2.36,8.47,7.86,14.58,12.28,14.49,1.88,0,3.47-1.12,5.43-2.47,2.76-1.89,7.14-8.92,7.14-8.92S201.36,216.14,197.72,215.15Z" style="fill:#f28f3b"/><path d="M214.45,325s15,60.05,108.22,17.13c.19-.09.1-.38-.09-.33-11,2.82-67.36,16.17-91.8-1.26C230.78,340.49,216.21,328.77,214.45,325Z" style="fill:#172b4d;opacity:0.47000000000000003"/><path d="M154.26,189.66a14.41,14.41,0,0,1-1-7.65,11.56,11.56,0,0,1,3.89-7.6,8.35,8.35,0,0,1,4.6-1.84,9,9,0,0,1,4.44.79A12.38,12.38,0,0,1,172,178.6c-2.6-.39-4.89-1-6.92-1.07a7.93,7.93,0,0,0-2.62.2,4.91,4.91,0,0,0-1.86,1,13.88,13.88,0,0,0-3.2,4.53C156.36,185.16,155.45,187.32,154.26,189.66Z" style="fill:#172b4d"/><circle cx="206.97" cy="134.24" r="43.39" style="fill:#fff"/><path d="M207,181.75a47.51,47.51,0,1,1,47.51-47.51A47.56,47.56,0,0,1,207,181.75ZM207,95a39.27,39.27,0,1,0,39.27,39.27A39.32,39.32,0,0,0,207,95Z" style="fill:#172b4d"/><circle cx="206.95" cy="134.24" r="23.44" style="fill:#172b4d"/><circle cx="194.68" cy="121.47" r="11.17" style="fill:#fff"/><path d="M324.21,325c.64-1.66.73-2.45,1.11-8.31a152.86,152.86,0,0,0-2.95-40.46c-1.28-6.25-2-7.6-1.84-12.82.42-10.44,12-28.39,12-28.39s7.75-13-2.84-23.2l-5.82-5.68a1.8,1.8,0,0,1,1.31-3.09c3.76.17,9.92,1.42,17.79,6.44,13.05,8.33,15.24,24.91,15.37,26l0,.13c.21.94,2.81,10.34,21.42,19.5,18.86,9.29,13.62,25.78,13.2,27a1.42,1.42,0,0,0-.05.16l-4,16.48s-4.71,21.58,14.15,25.52l.18,0,9.59,1.14a4.34,4.34,0,0,1,2.85,7.07c-3.29,4-7,9-8,12.55a19.46,19.46,0,0,0,.86,13.94A10,10,0,0,0,414,364h0a4.3,4.3,0,0,1,1.63,6.88c-3.24,3.63-9.19,8.65-19.65,12.94-18.83,7.72-26.95,8.72-40.94,8.77s-28.16-13.86-28.16-13.86-3.61-3.28-7.09-5.94a4.31,4.31,0,0,1,0-6.86c7.41-5.69,9.17-9.59,9.68-11.42a42,42,0,0,0,.93-4.8c.93-6.14.08-7.63-.23-8.48a7.6,7.6,0,0,0-6.45-5.05,2.55,2.55,0,0,1-1.93-3.4Z" style="fill:#f28f3b"/><path d="M397.31,371a10.89,10.89,0,0,1-5.44-3.63,24,24,0,0,1-2.06-2.64c-.58-.94-1.17-1.9-1.68-2.88s-1-2-1.44-3-.84-2.06-1.18-3.1l-1-3.15c-.28-1.06-.57-2.13-.83-3.2-.55-2.13-.9-4.29-1.31-6.45l-.89-6.39a40.32,40.32,0,0,0-3.34-11.27c-3.37-7.14-8.73-13.34-14.92-18.67A105.37,105.37,0,0,0,342.6,293l.26.08a24.56,24.56,0,0,1-5.79-2.92,22.06,22.06,0,0,1-4.66-4.28,17,17,0,0,1-3-5.46,16.62,16.62,0,0,1-.83-6,19.66,19.66,0,0,0,2.11,5.41,17.6,17.6,0,0,0,3.58,4.27,20.13,20.13,0,0,0,4.61,3,20.42,20.42,0,0,0,5,1.76h0l.24.08a74.73,74.73,0,0,1,12.12,5.33,79.69,79.69,0,0,1,11.09,7.29c7,5.51,13.15,12.52,16.83,21a40.28,40.28,0,0,1,3.23,13.4c.1,1.19.15,2.16.2,3.22l.15,3.14c.21,2.06.29,4.17.58,6.22a64.25,64.25,0,0,0,2.4,12.2,30.24,30.24,0,0,0,2.4,5.69A11.48,11.48,0,0,0,397.31,371Z" style="fill:#172b4d"/><path d="M338.23,232.69a19.8,19.8,0,0,0,5,16.57,12.51,12.51,0,0,0,1.51,1.49,12.12,12.12,0,0,0,1.63,1.38c.58.42,1.17.84,1.73,1.28s1.26.75,1.88,1.12a34.63,34.63,0,0,0,3.92,2l1,.5,1.12.52,2.23,1a69.87,69.87,0,0,1,16.62,10.89,33.16,33.16,0,0,1,6.49,7.87,20.16,20.16,0,0,1,1.94,4.78,12.44,12.44,0,0,1,.26,5,18.47,18.47,0,0,0-4.9-7.79,45.1,45.1,0,0,0-7.14-5.66,147.59,147.59,0,0,0-16.28-8.95l-2.11-1-1.06-.51-1.15-.61a34.37,34.37,0,0,1-4.46-2.67c-.71-.51-1.43-1-2.12-1.54s-1.32-1.2-2-1.8a14.88,14.88,0,0,1-1.81-2,17,17,0,0,1-1.61-2.15,19,19,0,0,1-3.3-10.11A16.91,16.91,0,0,1,338.23,232.69Z" style="fill:#172b4d"/><path d="M336.33,323a30.23,30.23,0,0,1,12.44,11.29,35.69,35.69,0,0,1,5.37,16.45l.1,4.26c0,1.23-.07,2.5.07,3.72a36.33,36.33,0,0,0,1,7.23,21.77,21.77,0,0,0,8.15,12.45,11.61,11.61,0,0,1-4.11-1.12,16.37,16.37,0,0,1-3.7-2.34,21,21,0,0,1-5.39-7.07,26.55,26.55,0,0,1-1.56-4.17c-.19-.71-.41-1.43-.56-2.15l-.36-2.17a37.35,37.35,0,0,1-.36-4.34l-.17-3.82a48.94,48.94,0,0,0-3.3-14.46A64.71,64.71,0,0,0,336.33,323Z" style="fill:#172b4d"/><path d="M219.8,266.72a22.37,22.37,0,0,1-5.81,1.84,32.47,32.47,0,0,1-6.16.58,41.32,41.32,0,0,1-12.34-1.91,49.21,49.21,0,0,1-11.39-5.3,60.43,60.43,0,0,1-9.83-7.71l2.42,1.14c-.77-.1-1.25-.18-1.82-.29s-1.09-.24-1.63-.37c-1.06-.27-2.11-.54-3.12-.87a56.9,56.9,0,0,1-6-2.26,68.45,68.45,0,0,1-10.93-6.17,70.53,70.53,0,0,1-9.5-8c-1.48-1.43-2.81-3-4.15-4.55s-2.52-3.24-3.67-4.93c.91.5,1.77,1,2.64,1.56s1.69,1.1,2.57,1.6c1.76,1,3.4,2.09,5.14,3q5.13,3,10.32,5.57c3.49,1.66,7,3.24,10.55,4.52,1.76.67,3.56,1.25,5.34,1.76.89.27,1.79.48,2.67.69.44.1.88.21,1.31.28l1.14.21,1.49.23.92.9a81.16,81.16,0,0,0,8.43,7.22,63.31,63.31,0,0,0,9.41,5.78,54.23,54.23,0,0,0,10.46,3.92A44.45,44.45,0,0,0,219.8,266.72Z" style="fill:#172b4d;opacity:0.47000000000000003"/><path d="M218.57,223.11a79.84,79.84,0,0,1-34-8.06l3.53-7.46c21.72,10.29,38.46,6.62,38.63,6.59l1.89,8A46.94,46.94,0,0,1,218.57,223.11Z" style="fill:#172b4d;opacity:0.47000000000000003"/></g></g></svg>